# xmcd CD database file
#
# Track frame offsets:
#	150
#	22130
#	44252
#	71383
#	86357
#
# Disc length: 1475 seconds
#
# Revision: 0
# Processed by: cddbd v1.5.1PL2 Copyright (c) Steve Scherf et al.
# Submitted via: CDex 1.51
#
DISCID=3705c105
DTITLE=Tumbleweed Town - Days Fade Shorter...
DYEAR=2004
DGENRE=Country
TTITLE0=Morning Breeze
TTITLE1=June
TTITLE2=Fall Again
TTITLE3=Cracked Pavement
TTITLE4=Days/Night
EXTD=YEAR: 2004
EXTT0=
EXTT1=
EXTT2=
EXTT3=
EXTT4=
PLAYORDER=
